<svg xmlns="http://www.w3.org/2000/svg" height="511pt" version="1.1" viewBox="-14 0 511 511.98331" width="511pt">
<g id="surface1">
<path d="M 482.867188 270.796875 C 482.867188 404 374.882812 511.984375 241.679688 511.984375 C 108.476562 511.984375 0.492188 404 0.492188 270.796875 C 0.492188 137.589844 108.476562 29.605469 241.679688 29.605469 C 374.882812 29.605469 482.867188 137.589844 482.867188 270.796875 Z M 482.867188 270.796875 " style=" stroke:none;fill-rule:nonzero;fill:rgb(21.960784%,23.529412%,41.960784%);fill-opacity:1;" />
<path d="M 31.230469 388.667969 C 72.53125 462.253906 151.292969 511.984375 241.679688 511.984375 C 332.066406 511.984375 410.828125 462.253906 452.128906 388.667969 Z M 31.230469 388.667969 " style=" stroke:none;fill-rule:nonzero;fill:rgb(16.078431%,18.823529%,34.901961%);fill-opacity:1;" />
<path d="M 329.390625 202.003906 L 241.546875 202.003906 L 241.546875 255.335938 L 329.390625 255.335938 C 336.660156 255.335938 342.550781 249.445312 342.550781 242.179688 L 342.550781 215.167969 C 342.550781 207.898438 336.660156 202.003906 329.390625 202.003906 Z M 329.390625 202.003906 " style=" stroke:none;fill-rule:nonzero;fill:rgb(100%,80.392157%,21.960784%);fill-opacity:1;" />
<path d="M 329.390625 228.671875 L 241.546875 228.671875 L 241.546875 255.335938 L 329.390625 255.335938 C 336.660156 255.335938 342.550781 249.445312 342.550781 242.179688 L 342.550781 215.511719 C 342.550781 222.78125 336.660156 228.671875 329.390625 228.671875 Z M 329.390625 228.671875 " style=" stroke:none;fill-rule:nonzero;fill:rgb(100%,67.45098%,0%);fill-opacity:1;" />
<path d="M 241.546875 202.003906 L 292.050781 202.003906 L 292.050781 255.335938 L 241.546875 255.335938 Z M 241.546875 202.003906 " style=" stroke:none;fill-rule:nonzero;fill:rgb(100%,67.45098%,0%);fill-opacity:1;" />
<path d="M 153.703125 202.003906 L 241.546875 202.003906 L 241.546875 255.335938 L 153.703125 255.335938 C 146.4375 255.335938 140.546875 249.445312 140.546875 242.179688 L 140.546875 215.167969 C 140.546875 207.898438 146.4375 202.003906 153.703125 202.003906 Z M 153.703125 202.003906 " style=" stroke:none;fill-rule:nonzero;fill:rgb(100%,67.45098%,0%);fill-opacity:1;" />
<path d="M 140.546875 215.511719 L 140.546875 242.179688 C 140.546875 249.445312 146.4375 255.339844 153.703125 255.339844 L 241.546875 255.339844 L 241.546875 228.671875 L 153.703125 228.671875 C 146.4375 228.671875 140.546875 222.78125 140.546875 215.511719 Z M 140.546875 215.511719 " style=" stroke:none;fill-rule:nonzero;fill:rgb(100%,52.156863%,0%);fill-opacity:1;" />
<path d="M 191.046875 202.003906 L 241.546875 202.003906 L 241.546875 255.335938 L 191.046875 255.335938 Z M 191.046875 202.003906 " style=" stroke:none;fill-rule:nonzero;fill:rgb(100%,80.392157%,21.960784%);fill-opacity:1;" />
<path d="M 241.546875 228.671875 L 292.050781 228.671875 L 292.050781 255.335938 L 241.546875 255.335938 Z M 241.546875 228.671875 " style=" stroke:none;fill-rule:nonzero;fill:rgb(100%,52.156863%,0%);fill-opacity:1;" />
<path d="M 191.046875 228.671875 L 241.546875 228.671875 L 241.546875 255.335938 L 191.046875 255.335938 Z M 191.046875 228.671875 " style=" stroke:none;fill-rule:nonzero;fill:rgb(100%,67.45098%,0%);fill-opacity:1;" />
<path d="M 329.007812 50.5 C 301.117188 2.191406 239.347656 -14.359375 191.039062 13.53125 C 142.734375 41.421875 126.183594 103.195312 154.074219 151.5 C 181.964844 199.808594 243.734375 216.359375 292.042969 188.46875 C 340.351562 160.578125 356.902344 98.804688 329.007812 50.5 Z M 329.007812 50.5 " style=" stroke:none;fill-rule:nonzero;fill:rgb(100%,80.392157%,21.960784%);fill-opacity:1;" />
<path d="M 211.277344 118.480469 C 189.167969 80.1875 194.988281 33.4375 222.410156 1.808594 C 211.660156 3.882812 201.0625 7.75 191.046875 13.53125 C 142.738281 41.421875 126.183594 103.195312 154.078125 151.503906 C 181.96875 199.8125 243.742188 216.363281 292.050781 188.472656 C 302.066406 182.691406 310.710938 175.449219 317.882812 167.171875 C 276.78125 175.105469 233.382812 156.773438 211.277344 118.480469 Z M 211.277344 118.480469 " style=" stroke:none;fill-rule:nonzero;fill:rgb(100%,67.45098%,0%);fill-opacity:1;" />
<path d="M 303.371094 65.300781 C 283.65625 31.15625 239.992188 19.457031 205.84375 39.171875 C 171.695312 58.886719 159.996094 102.550781 179.710938 136.699219 C 199.429688 170.84375 243.09375 182.542969 277.238281 162.828125 C 311.386719 143.113281 323.085938 99.449219 303.371094 65.300781 Z M 303.371094 65.300781 " style=" stroke:none;fill-rule:nonzero;fill:rgb(100%,67.45098%,0%);fill-opacity:1;" />
<path d="M 201.101562 42.191406 C 170.667969 63.078125 160.949219 104.195312 179.71875 136.699219 C 198.484375 169.207031 238.953125 181.351562 272.253906 165.4375 C 218.671875 150.875 186.925781 95.855469 201.101562 42.191406 Z M 201.101562 42.191406 " style=" stroke:none;fill-rule:nonzero;fill:rgb(100%,52.156863%,0%);fill-opacity:1;" />
<path d="M 275.503906 116.816406 C 275.503906 103.128906 264.507812 91.980469 250.886719 91.6875 L 250.886719 78.71875 L 260.449219 78.71875 C 265.605469 78.71875 269.789062 74.535156 269.789062 69.378906 C 269.789062 64.21875 265.605469 60.035156 260.449219 60.035156 L 250.886719 60.035156 L 250.886719 57.375 C 250.886719 52.214844 246.707031 48.035156 241.546875 48.035156 C 236.390625 48.035156 232.207031 52.214844 232.207031 57.375 L 232.207031 60.0625 C 218.585938 60.355469 207.589844 71.503906 207.589844 85.191406 C 207.589844 98.878906 218.585938 110.027344 232.207031 110.316406 L 232.207031 123.289062 L 222.648438 123.289062 C 217.488281 123.289062 213.308594 127.46875 213.308594 132.628906 C 213.308594 137.789062 217.488281 141.96875 222.648438 141.96875 L 232.207031 141.96875 L 232.207031 144.632812 C 232.207031 149.792969 236.390625 153.972656 241.546875 153.972656 C 246.707031 153.972656 250.886719 149.792969 250.886719 144.632812 L 250.886719 141.941406 C 264.507812 141.652344 275.503906 130.503906 275.503906 116.816406 Z M 232.207031 78.773438 L 232.207031 91.609375 C 224.34375 90.949219 224.335938 79.433594 232.207031 78.773438 Z M 250.886719 123.234375 L 250.886719 110.398438 C 254.203125 110.675781 256.824219 113.429688 256.824219 116.816406 C 256.824219 120.199219 254.203125 122.957031 250.886719 123.234375 Z M 250.886719 123.234375 " style=" stroke:none;fill-rule:nonzero;fill:rgb(100%,80.392157%,21.960784%);fill-opacity:1;" />
<path d="M 354.773438 255.335938 L 266.929688 255.335938 L 266.929688 308.671875 L 354.773438 308.671875 C 362.042969 308.671875 367.933594 302.777344 367.933594 295.511719 L 367.933594 268.496094 C 367.933594 261.230469 362.042969 255.335938 354.773438 255.335938 Z M 354.773438 255.335938 " style=" stroke:none;fill-rule:nonzero;fill:rgb(100%,80.392157%,21.960784%);fill-opacity:1;" />
<path d="M 354.773438 282.003906 L 266.929688 282.003906 L 266.929688 308.671875 L 354.773438 308.671875 C 362.042969 308.671875 367.933594 302.777344 367.933594 295.511719 L 367.933594 268.84375 C 367.933594 276.113281 362.042969 282.003906 354.773438 282.003906 Z M 354.773438 282.003906 " style=" stroke:none;fill-rule:nonzero;fill:rgb(100%,67.45098%,0%);fill-opacity:1;" />
<path d="M 266.929688 255.335938 L 317.433594 255.335938 L 317.433594 308.671875 L 266.929688 308.671875 Z M 266.929688 255.335938 " style=" stroke:none;fill-rule:nonzero;fill:rgb(100%,67.45098%,0%);fill-opacity:1;" />
<path d="M 179.085938 255.335938 L 266.929688 255.335938 L 266.929688 308.671875 L 179.085938 308.671875 C 171.820312 308.671875 165.925781 302.777344 165.925781 295.511719 L 165.925781 268.496094 C 165.929688 261.230469 171.820312 255.335938 179.085938 255.335938 Z M 179.085938 255.335938 " style=" stroke:none;fill-rule:nonzero;fill:rgb(100%,67.45098%,0%);fill-opacity:1;" />
<path d="M 165.929688 268.84375 L 165.929688 295.511719 C 165.929688 302.777344 171.820312 308.671875 179.085938 308.671875 L 266.933594 308.671875 L 266.933594 282.003906 L 179.085938 282.003906 C 171.820312 282.003906 165.929688 276.113281 165.929688 268.84375 Z M 165.929688 268.84375 " style=" stroke:none;fill-rule:nonzero;fill:rgb(100%,52.156863%,0%);fill-opacity:1;" />
<path d="M 216.429688 255.335938 L 266.929688 255.335938 L 266.929688 308.671875 L 216.429688 308.671875 Z M 216.429688 255.335938 " style=" stroke:none;fill-rule:nonzero;fill:rgb(100%,80.392157%,21.960784%);fill-opacity:1;" />
<path d="M 266.929688 282.003906 L 317.433594 282.003906 L 317.433594 308.671875 L 266.929688 308.671875 Z M 266.929688 282.003906 " style=" stroke:none;fill-rule:nonzero;fill:rgb(100%,52.156863%,0%);fill-opacity:1;" />
<path d="M 216.429688 282.003906 L 266.929688 282.003906 L 266.929688 308.671875 L 216.429688 308.671875 Z M 216.429688 282.003906 " style=" stroke:none;fill-rule:nonzero;fill:rgb(100%,67.45098%,0%);fill-opacity:1;" />
<path d="M 354.773438 308.671875 L 266.929688 308.671875 L 266.929688 362.003906 L 354.773438 362.003906 C 362.042969 362.003906 367.933594 356.113281 367.933594 348.84375 L 367.933594 321.832031 C 367.933594 314.5625 362.042969 308.671875 354.773438 308.671875 Z M 354.773438 308.671875 " style=" stroke:none;fill-rule:nonzero;fill:rgb(100%,80.392157%,21.960784%);fill-opacity:1;" />
<path d="M 354.773438 335.335938 L 266.929688 335.335938 L 266.929688 362.003906 L 354.773438 362.003906 C 362.042969 362.003906 367.933594 356.113281 367.933594 348.84375 L 367.933594 322.175781 C 367.933594 329.445312 362.042969 335.335938 354.773438 335.335938 Z M 354.773438 335.335938 " style=" stroke:none;fill-rule:nonzero;fill:rgb(100%,67.45098%,0%);fill-opacity:1;" />
<path d="M 266.929688 308.671875 L 317.433594 308.671875 L 317.433594 362.003906 L 266.929688 362.003906 Z M 266.929688 308.671875 " style=" stroke:none;fill-rule:nonzero;fill:rgb(100%,67.45098%,0%);fill-opacity:1;" />
<path d="M 179.085938 308.671875 L 266.929688 308.671875 L 266.929688 362.003906 L 179.085938 362.003906 C 171.820312 362.003906 165.925781 356.113281 165.925781 348.84375 L 165.925781 321.832031 C 165.929688 314.5625 171.820312 308.671875 179.085938 308.671875 Z M 179.085938 308.671875 " style=" stroke:none;fill-rule:nonzero;fill:rgb(100%,67.45098%,0%);fill-opacity:1;" />
<path d="M 165.929688 322.175781 L 165.929688 348.84375 C 165.929688 356.113281 171.820312 362.003906 179.085938 362.003906 L 266.933594 362.003906 L 266.933594 335.335938 L 179.085938 335.335938 C 171.820312 335.335938 165.929688 329.445312 165.929688 322.175781 Z M 165.929688 322.175781 " style=" stroke:none;fill-rule:nonzero;fill:rgb(100%,52.156863%,0%);fill-opacity:1;" />
<path d="M 216.429688 308.671875 L 266.929688 308.671875 L 266.929688 362.003906 L 216.429688 362.003906 Z M 216.429688 308.671875 " style=" stroke:none;fill-rule:nonzero;fill:rgb(100%,80.392157%,21.960784%);fill-opacity:1;" />
<path d="M 266.929688 335.335938 L 317.433594 335.335938 L 317.433594 362.003906 L 266.929688 362.003906 Z M 266.929688 335.335938 " style=" stroke:none;fill-rule:nonzero;fill:rgb(100%,52.156863%,0%);fill-opacity:1;" />
<path d="M 216.429688 335.335938 L 266.929688 335.335938 L 266.929688 362.003906 L 216.429688 362.003906 Z M 216.429688 335.335938 " style=" stroke:none;fill-rule:nonzero;fill:rgb(100%,67.45098%,0%);fill-opacity:1;" />
<path d="M 329.390625 362.003906 L 241.546875 362.003906 L 241.546875 415.335938 L 329.390625 415.335938 C 336.660156 415.335938 342.550781 409.445312 342.550781 402.175781 L 342.550781 375.164062 C 342.550781 367.894531 336.660156 362.003906 329.390625 362.003906 Z M 329.390625 362.003906 " style=" stroke:none;fill-rule:nonzero;fill:rgb(100%,80.392157%,21.960784%);fill-opacity:1;" />
<path d="M 329.390625 388.667969 L 241.546875 388.667969 L 241.546875 415.335938 L 329.390625 415.335938 C 336.660156 415.335938 342.550781 409.445312 342.550781 402.175781 L 342.550781 375.511719 C 342.550781 382.777344 336.660156 388.667969 329.390625 388.667969 Z M 329.390625 388.667969 " style=" stroke:none;fill-rule:nonzero;fill:rgb(100%,67.45098%,0%);fill-opacity:1;" />
<path d="M 241.546875 362.003906 L 292.050781 362.003906 L 292.050781 415.335938 L 241.546875 415.335938 Z M 241.546875 362.003906 " style=" stroke:none;fill-rule:nonzero;fill:rgb(100%,67.45098%,0%);fill-opacity:1;" />
<path d="M 153.703125 362.003906 L 241.546875 362.003906 L 241.546875 415.335938 L 153.703125 415.335938 C 146.4375 415.335938 140.546875 409.445312 140.546875 402.175781 L 140.546875 375.164062 C 140.546875 367.894531 146.4375 362.003906 153.703125 362.003906 Z M 153.703125 362.003906 " style=" stroke:none;fill-rule:nonzero;fill:rgb(100%,67.45098%,0%);fill-opacity:1;" />
<path d="M 140.546875 375.511719 L 140.546875 402.175781 C 140.546875 409.445312 146.4375 415.335938 153.703125 415.335938 L 241.546875 415.335938 L 241.546875 388.667969 L 153.703125 388.667969 C 146.4375 388.667969 140.546875 382.777344 140.546875 375.511719 Z M 140.546875 375.511719 " style=" stroke:none;fill-rule:nonzero;fill:rgb(100%,52.156863%,0%);fill-opacity:1;" />
<path d="M 191.046875 362.003906 L 241.546875 362.003906 L 241.546875 415.335938 L 191.046875 415.335938 Z M 191.046875 362.003906 " style=" stroke:none;fill-rule:nonzero;fill:rgb(100%,80.392157%,21.960784%);fill-opacity:1;" />
<path d="M 241.546875 388.667969 L 292.050781 388.667969 L 292.050781 415.335938 L 241.546875 415.335938 Z M 241.546875 388.667969 " style=" stroke:none;fill-rule:nonzero;fill:rgb(100%,52.156863%,0%);fill-opacity:1;" />
<path d="M 191.046875 388.667969 L 241.546875 388.667969 L 241.546875 415.335938 L 191.046875 415.335938 Z M 191.046875 388.667969 " style=" stroke:none;fill-rule:nonzero;fill:rgb(100%,67.45098%,0%);fill-opacity:1;" />
<path d="M 329.390625 468.667969 L 241.546875 468.667969 L 241.546875 511.980469 C 241.589844 511.980469 241.636719 511.984375 241.679688 511.984375 C 277.695312 511.984375 311.859375 504.078125 342.550781 489.925781 L 342.550781 481.828125 C 342.550781 474.558594 336.660156 468.667969 329.390625 468.667969 Z M 329.390625 468.667969 " style=" stroke:none;fill-rule:nonzero;fill:rgb(100%,80.392157%,21.960784%);fill-opacity:1;" />
<path d="M 241.546875 511.980469 C 241.589844 511.980469 241.636719 511.984375 241.679688 511.984375 C 272.847656 511.984375 302.636719 506.070312 329.984375 495.304688 C 329.785156 495.3125 329.589844 495.332031 329.390625 495.332031 L 241.546875 495.332031 Z M 241.546875 511.980469 " style=" stroke:none;fill-rule:nonzero;fill:rgb(100%,67.45098%,0%);fill-opacity:1;" />
<path d="M 241.546875 511.980469 C 241.589844 511.980469 241.636719 511.984375 241.679688 511.984375 C 258.957031 511.984375 275.800781 510.152344 292.050781 506.699219 L 292.050781 468.667969 L 241.546875 468.667969 Z M 241.546875 511.980469 " style=" stroke:none;fill-rule:nonzero;fill:rgb(100%,67.45098%,0%);fill-opacity:1;" />
<path d="M 140.546875 481.828125 L 140.546875 489.800781 C 171.269531 504.011719 205.476562 511.960938 241.546875 511.980469 L 241.546875 468.667969 L 153.703125 468.667969 C 146.4375 468.667969 140.546875 474.558594 140.546875 481.828125 Z M 140.546875 481.828125 " style=" stroke:none;fill-rule:nonzero;fill:rgb(100%,67.45098%,0%);fill-opacity:1;" />
<path d="M 153.414062 495.320312 C 180.710938 506.058594 210.441406 511.964844 241.546875 511.980469 L 241.546875 495.332031 L 153.703125 495.332031 C 153.605469 495.332031 153.511719 495.320312 153.414062 495.320312 Z M 153.414062 495.320312 " style=" stroke:none;fill-rule:nonzero;fill:rgb(100%,52.156863%,0%);fill-opacity:1;" />
<path d="M 191.046875 506.640625 C 207.332031 510.121094 224.222656 511.972656 241.546875 511.980469 L 241.546875 468.667969 L 191.046875 468.667969 Z M 191.046875 506.640625 " style=" stroke:none;fill-rule:nonzero;fill:rgb(100%,80.392157%,21.960784%);fill-opacity:1;" />
<path d="M 241.546875 511.980469 C 241.589844 511.980469 241.636719 511.984375 241.679688 511.984375 C 258.957031 511.984375 275.800781 510.152344 292.050781 506.699219 L 292.050781 495.332031 L 241.546875 495.332031 Z M 241.546875 511.980469 " style=" stroke:none;fill-rule:nonzero;fill:rgb(100%,52.156863%,0%);fill-opacity:1;" />
<path d="M 191.046875 506.640625 C 207.332031 510.121094 224.222656 511.972656 241.546875 511.980469 L 241.546875 495.335938 L 191.046875 495.335938 Z M 191.046875 506.640625 " style=" stroke:none;fill-rule:nonzero;fill:rgb(100%,67.45098%,0%);fill-opacity:1;" />
<path d="M 304.273438 415.335938 L 216.429688 415.335938 L 216.429688 468.667969 L 304.273438 468.667969 C 311.542969 468.667969 317.433594 462.777344 317.433594 455.507812 L 317.433594 428.496094 C 317.433594 421.226562 311.539062 415.335938 304.273438 415.335938 Z M 304.273438 415.335938 " style=" stroke:none;fill-rule:nonzero;fill:rgb(100%,80.392157%,21.960784%);fill-opacity:1;" />
<path d="M 304.273438 442 L 216.429688 442 L 216.429688 468.667969 L 304.273438 468.667969 C 311.539062 468.667969 317.433594 462.777344 317.433594 455.507812 L 317.433594 428.84375 C 317.433594 436.109375 311.539062 442 304.273438 442 Z M 304.273438 442 " style=" stroke:none;fill-rule:nonzero;fill:rgb(100%,67.45098%,0%);fill-opacity:1;" />
<path d="M 216.429688 415.335938 L 266.929688 415.335938 L 266.929688 468.667969 L 216.429688 468.667969 Z M 216.429688 415.335938 " style=" stroke:none;fill-rule:nonzero;fill:rgb(100%,67.45098%,0%);fill-opacity:1;" />
<path d="M 128.585938 415.335938 L 216.429688 415.335938 L 216.429688 468.667969 L 128.585938 468.667969 C 121.320312 468.667969 115.425781 462.777344 115.425781 455.507812 L 115.425781 428.496094 C 115.425781 421.226562 121.320312 415.335938 128.585938 415.335938 Z M 128.585938 415.335938 " style=" stroke:none;fill-rule:nonzero;fill:rgb(100%,67.45098%,0%);fill-opacity:1;" />
<path d="M 115.425781 428.84375 L 115.425781 455.507812 C 115.425781 462.777344 121.320312 468.667969 128.585938 468.667969 L 216.429688 468.667969 L 216.429688 442 L 128.585938 442 C 121.320312 442 115.425781 436.109375 115.425781 428.84375 Z M 115.425781 428.84375 " style=" stroke:none;fill-rule:nonzero;fill:rgb(100%,52.156863%,0%);fill-opacity:1;" />
<path d="M 165.929688 415.335938 L 216.429688 415.335938 L 216.429688 468.667969 L 165.929688 468.667969 Z M 165.929688 415.335938 " style=" stroke:none;fill-rule:nonzero;fill:rgb(100%,80.392157%,21.960784%);fill-opacity:1;" />
<path d="M 216.429688 442 L 266.929688 442 L 266.929688 468.667969 L 216.429688 468.667969 Z M 216.429688 442 " style=" stroke:none;fill-rule:nonzero;fill:rgb(100%,52.156863%,0%);fill-opacity:1;" />
<path d="M 165.929688 442 L 216.429688 442 L 216.429688 468.667969 L 165.929688 468.667969 Z M 165.929688 442 " style=" stroke:none;fill-rule:nonzero;fill:rgb(100%,67.45098%,0%);fill-opacity:1;" />
</g>
</svg>